<svg xmlns="http://www.w3.org/2000/svg" id="bluehost-logo-loader" shape-rendering="geometricPrecision" text-rendering="geometricPrecision" viewBox="0 0 256 256" style="white-space:pre"><style>@keyframes server1{0%{transform:translateX(62.052706px);animation-timing-function:cubic-bezier(.263355,.635853,.589685,1)}13.0434%{transform:translateX(59px);animation-timing-function:cubic-bezier(.391828,0,.702807,.461611)}}@keyframes server1inner{0%{transform:translate(-97.25px,99.75px);animation-timing-function:cubic-bezier(.276407,.565731,.584873,1)}43.4782%{transform:translate(-97.25px,99.75px);animation-timing-function:cubic-bezier(.711,0,.254,1)}}@keyframes server2{0%{transform:translateX(59px);animation-timing-function:cubic-bezier(.315772,.407241,.613645,.885444)}}@keyframes server2inner{0%{transform:translate(-97.25px,30.75px);animation-timing-function:cubic-bezier(.643,0,.358,1)}30.4347%{transform:translate(-97.25px,30.75px);animation-timing-function:cubic-bezier(.711,0,.254,1)}86.9565%{transform:translate(-97.25px,-38.25px);animation-timing-function:cubic-bezier(.342251,0,.675249,.345928)}}@keyframes server3{0%{transform:translateX(59px)}17.3913%{transform:translateX(59px);animation-timing-function:cubic-bezier(.711,0,.254,1)}73.913%{transform:translateX(128px);animation-timing-function:cubic-bezier(.687355,0,.465757,.856559)}}@keyframes server3inner{0%{transform:translate(-97.25px,-38.25px);animation-timing-function:cubic-bezier(.3905,.08993,.68958,.570439)}}@keyframes server4{0%{transform:translateX(128px);animation-timing-function:cubic-bezier(.292922,.64696,.623714,1)}4.3478%{transform:translateX(128px);animation-timing-function:cubic-bezier(.711,0,.254,1)}60.8695%{transform:translateX(197px);animation-timing-function:cubic-bezier(.406433,0,.721118,.418697)}}@keyframes server4inner{0%{transform:translate(-97.25px,-38.25px);animation-timing-function:cubic-bezier(.298401,.527453,.60637,1)}91.3043%{transform:translate(-97.25px,-38.25px);animation-timing-function:cubic-bezier(.382402,0,.712826,.352794)}}@keyframes server5{0%{transform:translateX(197px);animation-timing-function:cubic-bezier(.316518,.379513,.540799,1)}78.2608%{transform:translateX(197px);animation-timing-function:cubic-bezier(.543846,0,.824857,.41466)}}@keyframes server5inner{0%{transform:translate(-97.25px,-36.910931px);animation-timing-function:cubic-bezier(.57881,.141991,.191314,1)}47.826%{transform:translate(-97.25px,30.75px);animation-timing-function:cubic-bezier(.431573,0,.725213,.468595)}}@keyframes server6{0%{transform:translateX(182.598015px);animation-timing-function:cubic-bezier(.262618,.37043,.144386,1)}34.7826%{transform:translateX(128px);animation-timing-function:cubic-bezier(.450752,0,.713424,.534918)}}@keyframes server6inner{0%{transform:translate(-97.25px,30.75px);animation-timing-function:cubic-bezier(.287883,.464083,.549899,1)}65.2173%{transform:translate(-97.25px,30.75px);animation-timing-function:cubic-bezier(.847988,0,.673555,.652699)}}@keyframes server7{0%{transform:translateX(128px);animation-timing-function:cubic-bezier(.275487,.530639,.568646,1)}52.1739%{transform:translateX(128px);animation-timing-function:cubic-bezier(.774676,0,.376095,.864952)}}@keyframes server7inner{0%{transform:translate(-97.25px,87.696786px);animation-timing-function:cubic-bezier(.189333,.594797,.48397,1)}21.7391%{transform:translate(-97.25px,99.75px);animation-timing-function:cubic-bezier(.460352,0,.685292,.61941)}}</style><g id="s1" opacity="1" transform="translate(128,128) translate(-128,-128)"><g id="s1contents" style="animation:.92s linear infinite both server1"><g transform="translate(59,197) translate(-97.25,-97.25)" style="animation:.92s linear infinite both server1inner"><g id="inside10" opacity="1" transform="translate(97.25,97.25)"><path id="path1" fill="#3776b9" fill-opacity="1" fill-rule="nonzero" d="M-27,-27C-27,-27,27,-27,27,-27C27,-27,27,27,27,27C27,27,-27,27,-27,27C-27,27,-27,-27,-27,-27Z"/></g></g></g></g><g id="s2" opacity="1" transform="translate(128,128) translate(-128,-128)"><g id="s2contents" style="animation:.92s linear infinite both server2"><g transform="translate(59,128) translate(-97.25,-97.25)" style="animation:.92s linear infinite both server2inner"><g id="inside10-2" opacity="1" transform="translate(97.25,97.25)"><path id="path1-2" fill="#3776b9" fill-opacity="1" fill-rule="nonzero" d="M-27,-27C-27,-27,27,-27,27,-27C27,-27,27,27,27,27C27,27,-27,27,-27,27C-27,27,-27,-27,-27,-27Z"/></g></g></g></g><g id="s3" opacity="1" transform="translate(128,128) translate(-128,-128)"><g id="s3contents" style="animation:.92s linear infinite both server3"><g transform="translate(62.464,59) translate(-97.25,-97.25)" style="animation:.92s linear infinite both server3inner"><g id="inside10-3" opacity="1" transform="translate(97.25,97.25)"><path id="path1-3" fill="#3776b9" fill-opacity="1" fill-rule="nonzero" d="M-27,-27C-27,-27,27,-27,27,-27C27,-27,27,27,27,27C27,27,-27,27,-27,27C-27,27,-27,-27,-27,-27Z"/></g></g></g></g><g id="s4" opacity="1" transform="translate(128,128) translate(-128,-128)"><g id="s4contents" style="animation:.92s linear infinite both server4"><g transform="translate(156.182,59) translate(-97.25,-97.25)" style="animation:.92s linear infinite both server4inner"><g id="inside10-4" opacity="1" transform="translate(97.25,97.25)"><path id="path1-4" fill="#3776b9" fill-opacity="1" fill-rule="nonzero" d="M-27,-27C-27,-27,27,-27,27,-27C27,-27,27,27,27,27C27,27,-27,27,-27,27C-27,27,-27,-27,-27,-27Z"/></g></g></g></g><g id="s5" opacity="1" transform="translate(128,128) translate(-128,-128)"><g id="s5contents" style="animation:.92s linear infinite both server5"><g transform="translate(197,121.67) translate(-97.25,-97.25)" style="animation:.92s linear infinite both server5inner"><g id="inside10-5" opacity="1" transform="translate(97.25,97.25)"><path id="path1-5" fill="#3776b9" fill-opacity="1" fill-rule="nonzero" d="M-27,-27C-27,-27,27,-27,27,-27C27,-27,27,27,27,27C27,27,-27,27,-27,27C-27,27,-27,-27,-27,-27Z"/></g></g></g></g><g id="s6" opacity="1" transform="translate(128,128) translate(-128,-128)"><g id="s6contents" style="animation:.92s linear infinite both server6"><g transform="translate(128.269,128) translate(-97.25,-97.25)" style="animation:.92s linear infinite both server6inner"><g id="inside10-6" opacity="1" transform="translate(97.25,97.25)"><path id="path1-6" fill="#3776b9" fill-opacity="1" fill-rule="nonzero" d="M-27,-27C-27,-27,27,-27,27,-27C27,-27,27,27,27,27C27,27,-27,27,-27,27C-27,27,-27,-27,-27,-27Z"/></g></g></g></g><g id="s7" opacity="1" transform="translate(128,128) translate(-128,-128)"><g id="s7contents" style="animation:.92s linear infinite both server7"><g transform="translate(128,197) translate(-97.25,-97.25)" style="animation:.92s linear infinite both server7inner"><g id="inside10-7" opacity="1" transform="translate(97.25,97.25)"><path id="path1-7" fill="#3776b9" fill-opacity="1" fill-rule="nonzero" d="M-27,-27C-27,-27,27,-27,27,-27C27,-27,27,27,27,27C27,27,-27,27,-27,27C-27,27,-27,-27,-27,-27Z"/></g></g></g></g><g id="s8" transform="translate(197,197) translate(-97.25,-97.25)"><g id="s8contents" opacity="1" transform="translate(97.25,97.25)"><path id="path1-8" fill="#3776b9" fill-opacity="1" fill-rule="nonzero" d="M-27,-27C-27,-27,27,-27,27,-27C27,-27,27,27,27,27C27,27,-27,27,-27,27C-27,27,-27,-27,-27,-27Z"/></g></g></svg>